<?xml version="1.0" standalone="no"?>
<!DOCTYPE svg PUBLIC "-//W3C//DTD SVG 20010904//EN"
 "http://www.w3.org/TR/2001/REC-SVG-20010904/DTD/svg10.dtd">
<svg version="1.0" xmlns="http://www.w3.org/2000/svg"
 width="256.000000pt" height="256.000000pt" viewBox="0 0 256.000000 256.000000"
 preserveAspectRatio="xMidYMid meet">
<metadata>
Created by potrace 1.14, written by Peter Selinger 2001-2017
</metadata>
<g transform="translate(0.000000,256.000000) scale(0.100000,-0.100000)"
fill="#000000" stroke="none">
<path d="M880 2547 c-19 -6 -58 -34 -85 -62 -54 -53 -75 -102 -75 -171 0 -39
39 -136 59 -148 19 -12 12 -22 -29 -41 -22 -10 -45 -24 -51 -32 -6 -7 -30 -13
-52 -13 -70 0 -119 -21 -172 -75 -90 -89 -100 -205 -28 -303 14 -18 23 -34 22
-35 -2 -1 -21 -11 -43 -22 -54 -28 -113 -99 -131 -158 -8 -28 -15 -86 -15
-129 l0 -78 -108 0 c-71 0 -112 -4 -120 -12 -25 -25 -4 -226 38 -378 28 -99
106 -261 172 -357 68 -100 211 -243 311 -311 497 -341 1158 -281 1582 143 191
190 309 425 350 695 18 116 19 192 3 208 -8 8 -49 12 -119 12 l-107 0 -4 98
c-3 76 -9 107 -27 142 -30 59 -67 97 -116 122 -22 11 -42 22 -44 24 -1 1 8 18
22 36 50 68 60 174 23 246 -40 78 -132 132 -222 132 -23 0 -47 6 -53 13 -6 8
-29 22 -51 32 -41 19 -48 29 -29 41 20 12 59 109 59 148 0 130 -111 246 -238
246 -65 0 -115 -22 -167 -75 -54 -53 -75 -102 -75 -171 0 -39 39 -136 59 -148
19 -12 12 -22 -29 -41 -22 -10 -45 -24 -51 -32 -15 -17 -103 -17 -118 0 -6 8
-29 22 -51 32 -41 19 -48 29 -29 41 6 3 22 30 35 58 42 90 28 178 -43 256 -65
72 -158 97 -253 67z m173 -100 c98 -74 82 -219 -29 -272 -107 -50 -235 43
-221 161 13 121 155 184 250 111z m640 0 c98 -74 82 -219 -29 -272 -107 -50
-235 43 -221 161 13 121 155 184 250 111z m-569 -385 l29 -13 -41 -42 c-85
-87 -95 -210 -25 -305 14 -18 23 -34 22 -35 -2 -1 -21 -11 -42 -21 -21 -11
-54 -37 -73 -58 l-34 -38 -34 38 c-19 21 -52 47 -73 58 -21 10 -40 20 -42 21
-1 1 8 17 22 35 70 95 60 218 -25 305 l-41 42 24 9 c13 5 31 12 39 15 27 11
264 2 294 -11z m636 -1 l25 -12 -40 -42 c-79 -83 -89 -212 -22 -310 11 -16 18
-29 16 -31 -2 -1 -25 -14 -51 -29 -25 -15 -55 -39 -66 -54 l-19 -26 -37 36
c-20 20 -51 44 -69 53 -17 9 -33 17 -34 18 -1 1 11 28 27 60 53 104 30 235
-51 299 -19 15 -32 27 -29 27 3 0 23 7 45 15 49 18 266 16 305 -4z m-1027 -94
c98 -74 82 -219 -29 -272 -107 -50 -235 43 -221 161 13 121 155 184 250 111z
m640 0 c98 -74 82 -219 -29 -272 -107 -50 -235 43 -221 161 13 121 155 184
250 111z m640 0 c98 -74 82 -219 -29 -272 -107 -50 -235 43 -221 161 13 121
155 184 250 111z m-1218 -386 c51 -23 101 -79 114 -128 6 -21 11 -68 11 -105
l0 -68 -280 0 -280 0 0 79 c0 67 4 87 28 132 22 43 38 59 81 81 49 26 62 28
170 28 90 0 125 -4 156 -19z m618 8 c93 -25 147 -116 147 -246 l0 -63 -280 0
-280 0 0 68 c0 37 5 84 11 106 14 50 73 113 124 131 48 17 223 20 278 4z m642
0 c52 -15 119 -82 134 -134 6 -22 11 -70 11 -107 l0 -68 -281 0 -281 0 4 88
c6 127 49 193 146 222 40 12 221 11 267 -1z m-1675 -429 c0 -27 22 -95 66
-203 36 -89 70 -167 75 -174 6 -6 41 -19 79 -28 70 -17 92 -33 104 -72 9 -27
-5 -54 -55 -111 -49 -56 -53 -82 -34 -187 9 -48 15 -89 12 -91 -9 -9 -126 87
-192 157 -174 185 -281 427 -309 697 l-5 52 129 0 130 0 0 -40z m750 -40 c18
-44 36 -82 40 -85 4 -3 41 -12 81 -20 77 -16 119 -46 119 -84 0 -9 -27 -63
-60 -118 -49 -84 -65 -102 -89 -108 -70 -15 -111 -74 -111 -159 l0 -55 -87
-52 c-49 -29 -96 -59 -105 -67 -9 -8 -34 -56 -54 -108 l-37 -93 -47 24 -47 24
-21 108 c-30 149 -30 155 23 219 46 57 62 104 51 155 -13 66 -75 119 -159 134
-20 4 -40 12 -46 19 -5 6 -34 75 -65 153 -41 102 -55 149 -50 167 l6 26 313 0
313 0 32 -80z m780 -12 l60 -93 0 -203 c0 -231 1 -236 79 -329 l51 -62 -77
-65 c-282 -237 -673 -327 -1028 -235 -44 11 -81 22 -83 23 -1 2 12 41 30 87
l33 83 108 64 107 65 0 67 c0 79 14 103 75 123 36 12 47 25 110 128 65 106 70
118 70 171 0 91 -48 140 -154 160 -62 12 -64 13 -82 56 -11 24 -19 46 -19 48
0 2 149 4 330 4 l331 0 59 -92z m524 30 c-16 -158 -61 -306 -130 -438 -44 -82
-132 -209 -146 -210 -11 0 -87 96 -98 124 -6 16 -10 115 -10 229 0 155 -3 207
-14 222 -7 11 -30 46 -50 78 l-37 57 246 0 246 0 -7 -62z"/>
</g>
</svg>
